<svg width="15" height="10" viewBox="0 0 112 64" fill="none" xmlns="http://www.w3.org/2000/svg">
<path d="M109.535 61.5527C107.956 63.1197 105.814 64 103.582 64C101.349 64 99.2077 63.1197 97.6287 61.5527L55.9492 20.1764L14.2696 61.5527C12.6816 63.0753 10.5547 63.9178 8.34693 63.8988C6.13921 63.8797 4.02734 63.0006 2.46618 61.4508C0.905026 59.901 0.0195029 57.8045 0.00031842 55.6129C-0.018866 53.4212 0.829833 51.3098 2.36362 49.7333L49.9962 2.44735C51.5752 0.88031 53.7165 -2.54765e-06 55.9492 -2.45006e-06C58.1819 -2.35246e-06 60.3232 0.880311 61.9022 2.44735L109.535 49.7333C111.113 51.3008 112 53.4265 112 55.643C112 57.8594 111.113 59.9851 109.535 61.5527V61.5527Z" fill="#555555"/>
</svg>
